<?xml version="1.0" encoding="UTF-8"?>
<svg id="Layer_2" data-name="Layer 2" xmlns="http://www.w3.org/2000/svg" viewBox="0 0 924.71 336.27">
  <defs>
    <style>
      .cls-1 {
        fill: #cc3032;
      }

      .cls-1, .cls-2 {
        stroke-width: 0px;
      }

      .cls-2 {
        fill: #fff;
      }
    </style>
  </defs>
  <g id="Layer_1-2" data-name="Layer 1">
    <g>
      <path class="cls-1" d="m191.14,0C85.65-.1.08,70.32,0,157.27c0,8.6.82,17.21,2.5,25.65,4.62,23.34,15.64,45.06,30.8,63.32,3.91,4.69,8.07,9.17,12.47,13.41,2.23,2.14,4.52,4.23,6.85,6.27,1.85,1.6,4.19,2.61,5.44,4.74,6.24,10.65,4.08,25.39-1.46,35.79-6.29,11.78-17.03,20.58-28.44,27.51,23.6,5.15,48.99,1.6,70.28-9.8,4.27-2.29,8.36-4.87,12.35-7.61,2.94-2.02,5.81-4.12,8.66-6.27,2.35-1.76,4.89-4.86,7.81-4.41,6.8,1.02,13.58,3.6,20.38,4.91,14.24,2.73,28.73,4.08,43.23,4.09,105.49.1,191.06-70.32,191.14-157.26C382.08,70.66,296.63.1,191.14,0Zm66.49,169.3l-107.34,61.83c-6.19,3.56-13.92-.9-13.91-8.05l.11-123.86c0-7.15,7.74-11.6,13.93-8.03l107.22,62.03c6.19,3.58,6.18,12.52-.01,16.08Z"/>
      <g>
        <g>
          <path class="cls-2" d="m423.44,63.07l23.91.02,30.74,49.34,31.11-49.28,23.91.02-.09,93.7-21.3-.02.05-60.21-33.72,52.87-33.35-52.93-.05,60.21-21.3-.02.09-93.7Z"/>
          <path class="cls-2" d="m543.42,63.18l21.3.02-.09,93.7-21.3-.02.09-93.7Zm13.23-34.81l18.42.02-14.73,27.23h-12.78s9.1-27.25,9.1-27.25Z"/>
          <path class="cls-2" d="m576.46,156.91l.09-93.7,32.44.03c14.2.01,26.02,4.34,35.45,12.99,9.43,8.65,14.14,19.97,14.12,33.97s-4.74,25.29-14.19,33.88c-9.45,8.59-21.27,12.87-35.47,12.86l-32.44-.03Zm21.37-75.47l-.05,57.28h11.13c8.06.02,14.85-2.7,20.35-8.15,5.5-5.44,8.26-12.24,8.26-20.39s-2.74-15.09-8.23-20.54c-5.49-5.45-12.27-8.18-20.33-8.19h-11.13Z"/>
          <path class="cls-2" d="m666.7,63.29l21.3.02-.09,93.7-21.3-.02.09-93.7Z"/>
          <path class="cls-2" d="m731.02,63.35l24.74.02,36.89,93.73-23.09-.02-6.44-16.88-39.58-.04-6.47,16.87-23.09-.02,37.06-93.67Zm12.35,25l-12.81,33.61,25.56.02-12.75-33.64Z"/>
        </g>
        <g>
          <path class="cls-2" d="m451.49,199.81c0,1.37,1.94,2.61,5.84,3.72,3.89,1.1,8.61,2.32,14.15,3.65,5.54,1.33,11.08,3.06,16.63,5.17,5.54,2.11,10.26,5.35,14.15,9.7,3.89,4.36,5.83,9.6,5.83,15.74,0,10.26-3.84,17.98-11.5,23.15-7.66,5.17-18.31,7.75-31.96,7.74-16.58-.02-30.64-3.88-42.18-11.58l-1.37-1.1.96-1.65,10.32-16.89,1.1-1.79,1.79,1.1c1.19.74,2.77,1.61,4.74,2.62,1.97,1.01,5.7,2.36,11.2,4.06s10.58,2.55,15.25,2.56c3.21,0,5.89-.29,8.04-.89,2.15-.59,3.66-1.39,4.54-2.4.87-1.01,1.45-1.94,1.72-2.82.28-.87.41-1.86.41-2.95,0-1.74-1.05-3.28-3.16-4.61-2.11-1.33-4.83-2.46-8.17-3.37-3.34-.92-7.03-1.84-11.06-2.76-4.03-.92-8.06-2.09-12.09-3.52-4.03-1.42-7.72-3.08-11.06-4.96-3.34-1.88-6.07-4.43-8.17-7.64-2.11-3.21-3.15-6.92-3.15-11.14,0-9.9,4.05-17.5,12.12-22.8,8.07-5.31,17.83-7.96,29.28-7.95,5.68,0,11.06.61,16.15,1.8,5.08,1.2,9.32,2.71,12.71,4.55,3.39,1.84,5.86,3.26,7.42,4.27,1.56,1.01,2.88,1.97,3.98,2.89l.14.14,1.1.96-.83,1.51-9.91,15.93-1.24,1.92-1.79-1.38c-.37-.37-1.7-1.22-3.98-2.55-2.29-1.33-5.95-2.82-10.99-4.48-5.04-1.65-9.99-2.48-14.84-2.49s-7.86.89-9.55,2.67c-1.7,1.79-2.55,3.73-2.55,5.84Z"/>
          <path class="cls-2" d="m515.56,170.05h2.06s24.46.02,24.46.02h1.1s.69.96.69.96l30.47,48.13,30.83-48.07.69-.96h1.1s24.46.02,24.46.02h2.06s0,2.06,0,2.06l-.08,92.77v2.06s-2.06,0-2.06,0l-21.72-.02h-2.06s0-2.06,0-2.06l.05-54.97-31.52,48.49-1.79,2.88-1.92-2.89-31.02-48.54-.05,54.97v2.06s-2.06,0-2.06,0l-21.72-.02h-2.06s0-2.06,0-2.06l.08-92.77v-2.06Z"/>
          <path class="cls-2" d="m679.52,170.2h1.51s26.11.03,26.11.03h1.51s.55,1.38.55,1.38l38.12,92.81,1.1,2.75h-3.02s-23.64-.02-23.64-.02h-1.51s-.55-1.38-.55-1.38l-6.31-16.09-38.76-.04-6.34,16.07-.55,1.37h-1.51s-23.64-.02-23.64-.02h-3.02s1.1-2.75,1.1-2.75l38.29-92.74.55-1.37Zm24.82,58.57l-10.28-26.81-10.47,26.79,20.75.02Z"/>
          <path class="cls-2" d="m752.78,170.26h2.06s21.85.02,21.85.02h11.68c14.93.02,26.06,2.9,33.39,8.63,7.32,5.73,10.98,13.37,10.97,22.89-.01,12.28-5.33,21.07-15.97,26.37l19.35,36.16,1.51,2.89h-3.3s-22.54-.02-22.54-.02h-1.51s-.55-1.24-.55-1.24l-16.88-31.9h-4.54s-9.35-.01-9.35-.01l-.03,31.06v2.06s-2.34,0-2.34,0l-21.85-.02h-2.06s0-2.06,0-2.06l.08-92.77v-2.06Zm35.58,22.98h-9.35s-.02,17.86-.02,17.86h9.35c7.33.02,12.51-.64,15.53-1.97,3.02-1.32,4.54-3.64,4.54-6.94s-1.51-5.61-4.53-6.94c-3.02-1.33-8.2-2-15.53-2.01Z"/>
          <path class="cls-2" d="m840.6,170.34h2.06s79.99.07,79.99.07h2.06s0,2.06,0,2.06l-.02,18.83v2.06s-2.06,0-2.06,0l-26.25-.02-.07,71.88v2.06s-2.2,0-2.2,0l-23.23-.02h-2.2s0-2.06,0-2.06l.07-71.88-26.11-.02h-2.06s0-2.06,0-2.06l.02-18.83v-2.06Z"/>
        </g>
      </g>
    </g>
  </g>
</svg>